<?xml version="1.0" encoding="utf-8"?>
<!-- Generator: Adobe Illustrator 15.1.0, SVG Export Plug-In . SVG Version: 6.00 Build 0)  -->
<!DOCTYPE svg PUBLIC "-//W3C//DTD SVG 1.1//EN" "http://www.w3.org/Graphics/SVG/1.1/DTD/svg11.dtd">
<svg version="1.1" id="Layer_1" xmlns="http://www.w3.org/2000/svg" xmlns:xlink="http://www.w3.org/1999/xlink" x="0px" y="0px"
	 width="400px" height="495px" viewBox="0 0 400 495" enable-background="new 0 0 400 495" xml:space="preserve">
<defs>
	<filter id="Adobe_OpacityMaskFilter" filterUnits="userSpaceOnUse" x="0" y="0" width="400" height="495.084">
		<feColorMatrix  type="matrix" values="1 0 0 0 0  0 1 0 0 0  0 0 1 0 0  0 0 0 1 0"/>
	</filter>
</defs>
<mask maskUnits="userSpaceOnUse" x="0" y="0" width="400" height="495.084" id="crow_1_">
	<g filter="url(#Adobe_OpacityMaskFilter)">
		<rect width="400" height="495"/>
		<g>
			<path id="path626_5_" fill="#FFFFFF" d="M197.264,360.764c-7.002-2.843-12.111-2.603-13.294-0.24
				c-4.029,8.213-8.813,11.506-10.209,13.472c-2.344,3.545-4.734,5.339-6.31,5.497c-2.684,0-8.023,8.42-12.97,16.548
				c-3.682,5.912-1.341,16.018,1.789,16.546c1.391-0.577,2.155-1.816,7.603,0.895c1.337,1.763,2.155,3.315,3.578,5.813
				c-0.159,2.183-1.053,4.473-6.316,4.894c-5.262,0.104-10.263,0.233-12.468-0.421c-5.366-2.235-9.838-0.895-12.075,0
				c-17.099-0.213-28.622,0.896-32.199,0c-4.369-1.367-2.264-4.26,4.079-6.521c2.074-0.525,6.229-1.315,11.939-1.79
				c4.919-0.791,7.363-3.495,8.47-7.155c3.479-10.142,13.471-14.971,16.601-19.388c2.34-2.995,6.609-8.001,7.761-12.283
				c3.84-3.648,3.311-10.137,0.343-14.577c-4.232-5.704-6.32-15.077-10.787-19.808L197.264,360.764z"/>
			<path id="path626_4_" fill="#FFFFFF" d="M251.525,397.827c-0.364-1.915-3.221-1.646-4.024-0.896
				c-3.649,10.554-3.474,14.708-0.446,17.441c2.711,5.737-1.713,10.444-7.603,10.286c-22.652-1.581-38.589,0.735-40.634,0.186
				c-1.098-1.342-12.27-0.022-10.667-5.209c1.129-2.182,5.235-6.157,8.366-9.288c1.233-1.392,3.817-1.341,6.709-1.341
				c4.473,0,5.284,0.157,9.151-0.315c1.651-0.634,2.416-1.689,7.815-2.575c2.234-6.261,12.205-12.894,13.994-15.128
				c2.58-2.078,1.767-3.475,3.262-5.711c0.705-2.709,0.447-4.526-1.393-6.075L251.525,397.827z"/>
		</g>
	</g>
</mask>
<path id="crow" mask="url(#crow_1_)" fill="#CECECE" d="M61.013,24.464c2.046-8.33,14.17-15.125,23.703-15.652
	c1.31-0.371,5.506-2.584,8.943-3.578c21.146-9.057,38.357-3.895,41.375-2.557c3.017,1.496,12.35,7.422,18.421,11.921
	c9.866,5.131,12.897,13.191,16.575,16.759c7.155,8.945,15.53,14.817,26.49,23.992c11.907,9.016,20.814,25.906,22.044,29.434
	c2.809,1.315,6.658,4.883,15.576,7.761c33.266,4.143,62.479,58.331,73.539,95.627c7.586,7.975,5.74,31.249,9.335,36.561
	c4.835,7.373,13.637,62.532,18.585,68.509c1.366,2.466,0.385,11.241,3.188,18.651c1.516,4.004,8.654,29.893,12.384,36.705
	c5.507,10.109,10.598,35.236,16.479,43.403c17.924,25.111,21.638,44.021,26.354,51.212c0.763,1.659-1.293,4.889-3.054,2.363
	c-1.455-1.846-1.457-2.354-2.354-1.685c-1.786,1.68-3.071,2.796-2.291,5.479c2.236,3.578-0.335,5.759,2.404,9.616
	c3.13,5.143,8.945,19.342,11.292,25.656c-0.503,8.723-2.068,11.965-12.354,9.783c-5.032-1.175-8.221-5.758-10.454-11.57
	c-1.79-2.571-6.372-1.788-8.497-0.448c-10.848,17.386-47.572,11.518-55.734,2.235c-7.991-9.561-30.606-47.993-35.133-54.771
	c-8.774-2.885-24.039-21.216-26.304-31.986c-0.364-1.915-3.219-1.644-4.024-0.894c-3.649,10.551-3.474,14.709-0.446,17.439
	c2.711,5.736-1.713,10.443-7.604,10.287c-22.651-1.584-38.586,0.734-40.633,0.186c-1.098-1.345-12.269-0.022-10.665-5.208
	c1.13-2.185,5.235-6.158,8.366-9.288c1.232-1.394,3.815-1.342,6.708-1.342c4.474,0,5.285,0.156,9.151-0.317
	c1.651-0.631,2.417-1.69,7.815-2.573c2.234-6.262,12.205-12.895,13.994-15.131c2.58-2.076,1.768-3.473,3.262-5.709
	c0.703-2.709,0.447-4.523-1.391-6.075c-12.592-8.188-30.688-13.227-38.794-18.438c-7.003-2.84-12.113-2.604-13.296-0.239
	c-4.029,8.213-8.812,11.507-10.209,13.472c-2.344,3.547-4.734,5.34-6.311,5.496c-2.684,0-8.022,8.424-12.969,16.547
	c-3.682,5.914-1.341,16.021,1.789,16.549c1.391-0.576,2.155-1.815,7.602,0.896c1.337,1.763,2.155,3.316,3.578,5.812
	c-0.159,2.184-1.052,4.474-6.315,4.894c-5.263,0.104-10.264,0.234-12.468-0.42c-5.366-2.236-9.838-0.896-12.075,0
	c-17.098-0.214-28.621,0.896-32.198,0c-4.369-1.369-2.264-4.259,4.078-6.522c2.074-0.522,6.229-1.313,11.939-1.789
	c4.919-0.79,7.363-3.496,8.47-7.153c3.479-10.144,13.471-14.973,16.601-19.391c2.341-2.994,6.61-8,7.761-12.281
	c3.84-3.649,3.311-10.139,0.343-14.58c-4.232-5.703-6.32-15.078-10.788-19.807c-22.967-25.127-31.543-44.252-38.373-53.152
	c-7.447-5.24-15.947-25.64-21.226-49.318c-1.765-7.864-8.17-14.104-15.943-49.521c-4.16-17.076-10.856-37.941-0.876-60.75
	c4.128-5.732,3.519-14.143,7.156-24.597c0-4.919-1.609-10.968,1.341-14.311c-0.054-2.235,0.027-3.79-2.787-5.339
	c-3.289-2.182-3.998-4.685-4.102-7.756c-4.531-4.178-0.741-5.764-5.634-8.818c-5.366-1.789-8.943-3.13-10.285-5.813
	c-2.449-0.787-5.304-1.053-13.905-1.975c-11.92-1.715-29.442-4.497-35.287-7.868c-2.683-1.789-4.418-2.105-0.895-5.628
	C12.302,37.61,29.024,32.1,46.255,28.937c2.683,0,4.603-0.817,5.813-1.789C56.282,24.912,60.565,24.464,61.013,24.464z"/>
</svg>
