<?xml version="1.0" encoding="utf-8"?>
<!-- Generator: Adobe Illustrator 15.1.0, SVG Export Plug-In . SVG Version: 6.00 Build 0)  -->
<!DOCTYPE svg PUBLIC "-//W3C//DTD SVG 1.1//EN" "http://www.w3.org/Graphics/SVG/1.1/DTD/svg11.dtd">
<svg version="1.1" id="Layer_1" xmlns="http://www.w3.org/2000/svg" xmlns:xlink="http://www.w3.org/1999/xlink" x="0px" y="0px"
	 width="600px" height="400px" viewBox="0 0 600 400" enable-background="new 0 0 600 400" xml:space="preserve">
<radialGradient id="SVGID_1_" cx="300.1714" cy="200" r="398.9837" gradientUnits="userSpaceOnUse">
	<stop  offset="0" style="stop-color:#FFFFFF"/>
	<stop  offset="0.2947" style="stop-color:#FCFCFD"/>
	<stop  offset="0.4746" style="stop-color:#F4F4F5"/>
	<stop  offset="0.6237" style="stop-color:#E6E6E7"/>
	<stop  offset="0.756" style="stop-color:#D1D2D3"/>
	<stop  offset="0.8772" style="stop-color:#B7B8BA"/>
	<stop  offset="0.9887" style="stop-color:#97999C"/>
	<stop  offset="1" style="stop-color:#939598"/>
</radialGradient>
<rect x="0.343" fill="url(#SVGID_1_)" width="599.657" height="400"/>
<g id="blue-bubbles_1_" opacity="0.05">
	<circle cx="153.121" cy="303.762" r="97.611"/>
	<circle cx="255.248" cy="223.201" r="65.762"/>
	<circle cx="230.233" cy="303.762" r="52.058"/>
	<circle cx="185.085" cy="145.187" r="25.558"/>
	<circle cx="255.857" cy="96.577" r="15.107"/>
</g>
<rect x="624.038" y="197.173" fill="#EC2127" width="24.038" height="24.039"/>
<rect x="648.158" y="197.173" fill="#FCEE22" width="24.038" height="24.039"/>
<rect x="672.196" y="197.173" fill="#01A64F" width="24.038" height="24.039"/>
<rect x="600" y="197.173" fill="#5A9EBE" width="24.038" height="24.039"/>
<linearGradient id="SVGID_2_" gradientUnits="userSpaceOnUse" x1="0.3428" y1="186.0645" x2="427.1318" y2="186.0645">
	<stop  offset="0" style="stop-color:#5A9EBE"/>
	<stop  offset="0.5153" style="stop-color:#5A9EBE;stop-opacity:0.5"/>
	<stop  offset="1" style="stop-color:#5A9EBE"/>
</linearGradient>
<path fill="url(#SVGID_2_)" d="M74.615,325.446c11.8-2.908,23.179-6.776,33.926-11.723c10.751-4.944,20.863-10.968,30.237-18.068
	c9.381-7.094,18.026-15.261,26.013-24.33c7.993-9.064,15.327-19.021,22.243-29.603c13.883-21.167,25.907-44.778,39.76-68.975
	c6.956-12.09,14.421-24.355,23.154-36.347c8.722-11.969,18.795-23.696,30.745-34.045c11.901-10.36,25.724-19.158,40.473-25.416
	c14.746-6.306,30.229-10.118,45.461-12.042c15.26-1.931,30.315-2.064,44.997-1.136c3.729,0.238,7.437,0.547,11.122,0.917
	l4.385-23.704c-4.611-0.488-9.267-0.9-13.981-1.203c-15.891-1.002-32.436-0.884-49.551,1.279
	c-17.072,2.155-34.804,6.481-51.868,13.78c-8.519,3.633-16.828,7.982-24.688,12.939c-7.864,4.952-15.269,10.502-22.09,16.418
	c-13.68,11.85-24.931,25.022-34.428,38.052c-9.512,13.066-17.39,26.053-24.572,38.531c-7.17,12.488-13.641,24.505-20.001,35.866
	c-6.352,11.361-12.583,22.071-19.035,31.93c-6.446,9.863-13.104,18.866-20.159,26.866c-7.054,8.006-14.494,15.01-22.484,21.054
	c-7.987,6.048-16.543,11.149-25.779,15.399c-9.229,4.248-19.142,7.636-29.636,10.223c-20.987,5.185-44.203,7.124-68.173,6.78
	l-0.342,24.035C25.815,333.28,50.998,331.269,74.615,325.446z"/>
<linearGradient id="SVGID_3_" gradientUnits="userSpaceOnUse" x1="4.882812e-04" y1="210.1025" x2="536.1289" y2="210.1025">
	<stop  offset="0" style="stop-color:#EC2127"/>
	<stop  offset="0.5153" style="stop-color:#EC2127;stop-opacity:0.5"/>
	<stop  offset="1" style="stop-color:#EC2127"/>
</linearGradient>
<path fill="url(#SVGID_3_)" d="M454.718,69.362c-10.487-1.981-21.138-3.6-31.971-4.685c-3.686-0.37-7.393-0.678-11.122-0.917
	c-14.682-0.928-29.737-0.795-44.997,1.136c-15.232,1.924-30.715,5.736-45.461,12.042c-14.749,6.258-28.572,15.056-40.473,25.416
	c-11.95,10.349-22.023,22.076-30.745,34.045c-8.733,11.992-16.199,24.257-23.154,36.347c-13.854,24.197-25.877,47.808-39.76,68.975
	c-6.916,10.581-14.25,20.538-22.243,29.603c-7.987,9.069-16.632,17.236-26.013,24.33c-9.374,7.101-19.486,13.124-30.237,18.068
	c-10.748,4.946-22.126,8.814-33.926,11.723c-23.617,5.822-48.8,7.834-74.272,7.478L0,356.961
	c26.974,0.368,54.125-1.717,80.372-8.176c13.106-3.229,25.951-7.578,38.217-13.224c12.266-5.638,23.934-12.584,34.695-20.738
	c10.771-8.143,20.623-17.474,29.542-27.604c8.931-10.13,16.941-21.041,24.327-32.339c14.801-22.61,27.05-46.734,40.484-70.155
	c6.729-11.703,13.781-23.245,21.737-34.164c7.947-10.908,16.841-21.19,27.061-30.039c10.192-8.861,21.733-16.189,34.167-21.474
	c12.429-5.314,25.662-8.61,39.054-10.304c13.404-1.699,26.971-1.847,40.443-0.993c2.756,0.176,5.508,0.404,8.257,0.661
	c10.696,0.999,21.337,2.575,31.892,4.57c26.542,5.049,52.549,12.593,78.099,21.313l7.782-22.744
	C509.805,82.571,482.824,74.714,454.718,69.362z"/>
<linearGradient id="SVGID_4_" gradientUnits="userSpaceOnUse" x1="-0.3428" y1="234.2207" x2="481.7012" y2="234.2207">
	<stop  offset="0" style="stop-color:#FCEE22"/>
	<stop  offset="0.6994" style="stop-color:#FCEE22;stop-opacity:0.5"/>
	<stop  offset="1" style="stop-color:#FCEE22"/>
</linearGradient>
<path fill="url(#SVGID_4_)" d="M450.232,93.062c-10.554-1.995-21.195-3.571-31.891-4.57c-2.746-0.256-5.495-0.484-8.248-0.66
	c-13.468-0.854-27.029-0.705-40.428,0.993c-13.386,1.693-26.611,4.988-39.031,10.299c-12.428,5.282-23.961,12.605-34.146,21.461
	c-10.214,8.843-19.104,19.121-27.049,30.025c-7.953,10.915-15.003,22.455-21.732,34.157c-13.433,23.418-25.682,47.544-40.486,70.158
	c-7.387,11.301-15.4,22.216-24.334,32.349c-8.922,10.135-18.777,19.469-29.554,27.616c-10.765,8.157-22.439,15.106-34.71,20.746
	c-12.271,5.648-25.121,9.999-38.231,13.229C54.136,355.325,26.978,357.41,0,357.041l-0.342,24.037
	c28.48,0.38,57.605-1.777,86.492-8.875c14.417-3.553,28.732-8.383,42.522-14.73c13.786-6.333,27.016-14.205,39.168-23.416
	c12.167-9.195,23.227-19.694,33.083-30.891c9.872-11.198,18.562-23.067,26.418-35.086c15.723-24.056,28.197-48.696,41.21-71.337
	c6.502-11.314,13.14-22.132,20.314-31.974c7.169-9.843,14.881-18.676,23.365-26.018c8.477-7.356,17.728-13.21,27.841-17.52
	c10.103-4.318,21.079-7.098,32.624-8.561c11.543-1.465,23.615-1.629,35.874-0.85c1.79,0.114,3.584,0.254,5.382,0.407
	c10.519,0.896,21.157,2.437,31.813,4.452c9.962,1.893,19.934,4.187,29.895,6.792l6.043-23.267
	C471.293,97.485,460.806,95.073,450.232,93.062z"/>
<linearGradient id="SVGID_5_" gradientUnits="userSpaceOnUse" x1="34.9951" y1="408.127" x2="382.9951" y2="142.1272">
	<stop  offset="0" style="stop-color:#01A64F"/>
	<stop  offset="0.6994" style="stop-color:#01A64F;stop-opacity:0.5"/>
	<stop  offset="1" style="stop-color:#01A64F"/>
</linearGradient>
<path opacity="0.55" fill="url(#SVGID_5_)" d="M369,116.506c-12.15,0-23.7,2.592-34.154,7.221c-0.391,0.172-0.779,0.349-1.166,0.528
	c-7.651,3.901-14.797,8.723-21.45,14.497c-1.696,1.468-3.354,3.011-4.99,4.595c-6.548,6.335-12.64,13.548-18.375,21.423
	c-7.175,9.842-13.812,20.659-20.314,31.974c-13.013,22.641-25.487,47.281-41.21,71.337c-7.857,12.019-16.546,23.888-26.418,35.086
	c-9.855,11.196-20.916,21.695-33.083,30.891c-12.152,9.211-25.382,17.083-39.168,23.416c-13.79,6.348-28.105,11.178-42.522,14.73
	c-28.886,7.098-58.012,9.255-86.492,8.875l-0.342,24.035c15.009,0.21,30.253-0.268,45.715-1.742
	c15.455-1.476,31.141-3.949,46.876-7.829c15.722-3.874,31.504-9.185,46.812-16.231c15.301-7.027,30.087-15.821,43.626-26.085
	c13.558-10.246,25.823-21.908,36.611-34.166c10.81-12.264,20.176-25.087,28.502-37.823c14.959-22.92,26.73-45.554,38.104-65.778
	c1.28-2.274,2.555-4.527,3.829-6.738c6.276-10.926,12.5-21.021,18.898-29.79c5.065-6.958,10.221-13.025,15.502-18.156
	c5.793-6.477,12.953-11.701,21.023-15.224c7.415-3.237,15.592-5.044,24.186-5.044c20.282,0,38.259,10.015,49.279,25.349l17.12-17.12
	C419.879,129.124,395.893,116.506,369,116.506z"/>
<g id="blue-bubbles">
	<radialGradient id="SVGID_6_" cx="64.7236" cy="180.2246" r="123.3209" gradientUnits="userSpaceOnUse">
		<stop  offset="0.0429" style="stop-color:#5A9EBE;stop-opacity:0.5"/>
		<stop  offset="1" style="stop-color:#5A9EBE"/>
	</radialGradient>
	<circle fill="url(#SVGID_6_)" cx="94.677" cy="209.193" r="57.745"/>
	<radialGradient id="SVGID_7_" cx="49" cy="257" r="97.6217" gradientUnits="userSpaceOnUse">
		<stop  offset="0.0429" style="stop-color:#5A9EBE;stop-opacity:0.5"/>
		<stop  offset="1" style="stop-color:#5A9EBE"/>
	</radialGradient>
	<circle fill="url(#SVGID_7_)" cx="72.711" cy="279.933" r="45.711"/>
	<radialGradient id="SVGID_8_" cx="21.4268" cy="129.4307" r="47.9282" gradientUnits="userSpaceOnUse">
		<stop  offset="0.0429" style="stop-color:#5A9EBE;stop-opacity:0.5"/>
		<stop  offset="1" style="stop-color:#5A9EBE"/>
	</radialGradient>
	<circle fill="url(#SVGID_8_)" cx="33.068" cy="140.689" r="22.442"/>
	<radialGradient id="SVGID_9_" cx="88.3301" cy="91.3511" r="28.3296" gradientUnits="userSpaceOnUse">
		<stop  offset="0.0429" style="stop-color:#5A9EBE;stop-opacity:0.5"/>
		<stop  offset="1" style="stop-color:#5A9EBE"/>
	</radialGradient>
	<circle fill="url(#SVGID_9_)" cx="95.211" cy="98.006" r="13.265"/>
	<radialGradient id="SVGID_10_" cx="-39.459" cy="236.9336" r="183.0449" gradientUnits="userSpaceOnUse">
		<stop  offset="0.0429" style="stop-color:#5A9EBE;stop-opacity:0.5"/>
		<stop  offset="1" style="stop-color:#5A9EBE"/>
	</radialGradient>
	<path fill="url(#SVGID_10_)" d="M5,194.22c-1.912,0-3.804,0.085-5.685,0.208v171.007c1.881,0.123,3.773,0.208,5.685,0.208
		c47.338,0,85.71-38.375,85.71-85.711C90.71,232.595,52.338,194.22,5,194.22z"/>
</g>
<g id="overlay-group" opacity="0.5">
	<linearGradient id="SVGID_11_" gradientUnits="userSpaceOnUse" x1="121.1821" y1="216.7881" x2="261.8994" y2="216.7881">
		<stop  offset="0" style="stop-color:#5A9EBE"/>
		<stop  offset="0.5153" style="stop-color:#5A9EBE;stop-opacity:0.5"/>
		<stop  offset="1" style="stop-color:#5A9EBE"/>
	</linearGradient>
	<circle fill="url(#SVGID_11_)" cx="191.541" cy="216.788" r="70.359"/>
	<linearGradient id="SVGID_12_" gradientUnits="userSpaceOnUse" x1="310" y1="131.4697" x2="410" y2="131.4697">
		<stop  offset="0" style="stop-color:#EC2127"/>
		<stop  offset="0.5153" style="stop-color:#EC2127;stop-opacity:0.5"/>
		<stop  offset="1" style="stop-color:#EC2127"/>
	</linearGradient>
	<circle fill="url(#SVGID_12_)" cx="360" cy="131.47" r="50"/>
</g>
<g id="blue-bubbles_2_" opacity="0.21">
	
		<radialGradient id="SVGID_13_" cx="353.0225" cy="305.4482" r="124.0653" gradientTransform="matrix(0.8997 0.4365 -0.4365 0.8997 169.1211 -140.458)" gradientUnits="userSpaceOnUse">
		<stop  offset="0.0429" style="stop-color:#5A9EBE;stop-opacity:0.5"/>
		<stop  offset="1" style="stop-color:#5A9EBE"/>
	</radialGradient>
	<circle fill="url(#SVGID_13_)" cx="367.798" cy="327.822" r="58.093"/>
	
		<radialGradient id="SVGID_14_" cx="474.0713" cy="260.999" r="83.585" gradientTransform="matrix(0.8997 0.4365 -0.4365 0.8997 169.1211 -140.458)" gradientUnits="userSpaceOnUse">
		<stop  offset="0.0429" style="stop-color:#5A9EBE;stop-opacity:0.5"/>
		<stop  offset="1" style="stop-color:#5A9EBE"/>
	</radialGradient>
	<circle fill="url(#SVGID_14_)" cx="491.412" cy="327.822" r="39.139"/>
	
		<radialGradient id="SVGID_15_" cx="368.1689" cy="250.2891" r="66.1666" gradientTransform="matrix(0.8997 0.4365 -0.4365 0.8997 169.1211 -140.458)" gradientUnits="userSpaceOnUse">
		<stop  offset="0.0429" style="stop-color:#5A9EBE;stop-opacity:0.5"/>
		<stop  offset="1" style="stop-color:#5A9EBE"/>
	</radialGradient>
	<circle fill="url(#SVGID_15_)" cx="398.786" cy="266.432" r="30.982"/>
	
		<radialGradient id="SVGID_16_" cx="395.6904" cy="175.5493" r="32.485" gradientTransform="matrix(0.8997 0.4365 -0.4365 0.8997 169.1211 -140.458)" gradientUnits="userSpaceOnUse">
		<stop  offset="0.0429" style="stop-color:#5A9EBE;stop-opacity:0.5"/>
		<stop  offset="1" style="stop-color:#5A9EBE"/>
	</radialGradient>
	<circle fill="url(#SVGID_16_)" cx="452.264" cy="200.513" r="15.211"/>
	
		<radialGradient id="SVGID_17_" cx="429.3643" cy="227.1709" r="19.2006" gradientTransform="matrix(0.8997 0.4365 -0.4365 0.8997 169.1211 -140.458)" gradientUnits="userSpaceOnUse">
		<stop  offset="0.0429" style="stop-color:#5A9EBE;stop-opacity:0.5"/>
		<stop  offset="1" style="stop-color:#5A9EBE"/>
	</radialGradient>
	<circle fill="url(#SVGID_17_)" cx="458.486" cy="257.438" r="8.991"/>
</g>
<circle opacity="0.36" fill="none" stroke="#EC2127" stroke-width="16.5739" stroke-miterlimit="10" cx="321.01" cy="288.964" r="56.41"/>
<circle opacity="0.36" fill="none" stroke="#FCEE22" stroke-width="20" stroke-miterlimit="10" cx="294.449" cy="186.064" r="33.999"/>
</svg>
