<?xml version="1.0" encoding="utf-8"?>
<!-- Generator: Adobe Illustrator 15.1.0, SVG Export Plug-In . SVG Version: 6.00 Build 0)  -->
<!DOCTYPE svg PUBLIC "-//W3C//DTD SVG 1.1//EN" "http://www.w3.org/Graphics/SVG/1.1/DTD/svg11.dtd">
<svg version="1.1" id="Layer_1" xmlns="http://www.w3.org/2000/svg" xmlns:xlink="http://www.w3.org/1999/xlink" x="0px" y="0px"
	 width="45px" height="100px" viewBox="0 0 45 100" enable-background="new 0 0 45 100" xml:space="preserve">
<path d="M9.239,62.648c0.961-2.899,1.93-8.616,2.867-14.145c2.742-16.188,4.345-24.152,10-24.492L22.171,24h0.29
	c0.011,0,0.021,0,0.03,0l0.4,0.012c5.657,0.338,7.26,8.303,10.002,24.492c0.938,5.528,1.906,11.245,2.901,14.231
	c0.29,0.57,1.841,1.976,3.205,3.173C39,51.057,39,35.194,39,27c0-2.443-1.557-8.917-4-8.917S31,24.557,31,27c0-19-5-27-8.509-27
	C19,0,14,8,14,27c0-2.443-1.557-8.917-4-8.917S6,24.557,6,27c0,8.194,0,24.057,0,38.907C7.365,64.708,8.922,63.29,9.239,62.648z"/>
<path d="M32,64c-3-9-5-36-9.491-36c-0.003,0-0.006,0.001-0.009,0.001S22.494,28,22.491,28C18,28,16,55,13,64
	C11.696,67.911,0,74,0,80c0,0.75,0,3,0,3l16,3v4l6.5,1.562L29,90v-4l16-3c0,0,0-2.25,0-3C45,74,33.304,67.911,32,64z"/>
<path d="M6,100h8c0,0,0-8.41,0-12.375l-8-1.5C6,93.227,6,100,6,100z"/>
<path d="M31,100h8c0,0,0-6.773,0-13.875l-8,1.5C31,91.59,31,100,31,100z"/>
</svg>
