<?xml version="1.0" encoding="utf-8"?>
<!-- Generator: Adobe Illustrator 15.1.0, SVG Export Plug-In . SVG Version: 6.00 Build 0)  -->
<!DOCTYPE svg PUBLIC "-//W3C//DTD SVG 1.1//EN" "http://www.w3.org/Graphics/SVG/1.1/DTD/svg11.dtd">
<svg version="1.1" id="Layer_1" xmlns="http://www.w3.org/2000/svg" xmlns:xlink="http://www.w3.org/1999/xlink" x="0px" y="0px"
	 width="99.963px" height="71.936px" viewBox="0 0 99.963 71.936" enable-background="new 0 0 99.963 71.936" xml:space="preserve">
<path d="M99.774,8.408c0.935-1.868-1.868-4.671-2.803-4.671c-0.001,0-5.605,0-7.474,0c-0.522,0-1.346-0.934-1.869-0.934
	c-0.934,0-2.803,0-2.803,0s-1.62-2.46-2.803-1.869c-1.867,0.934,0,4.671,0,4.671c-5.604,4.671-4.407,12.64-10.945,12.64
	c-4.347,0-8.673-6.1-13.344-7.969c-1.789-0.715-5.605-0.934-7.475-1.868C47.126,6.842,46.523,0,39.049,0
	c-7.474,0-11.173,7.761-14.947,10.276c-2.803,1.869-12.145,4.672-12.145,11.211c0,0.276-2.615,10.276-3.549,12.145
	c-0.13,0.262-5.605,5.605-4.671,7.475c0.051,0.102,3.736-0.934,5.605-6.54c1.159-3.476,2.803-9.343,2.803-9.343
	s0.539,2.15,0.753,3.737c0.307,2.259,0.496,4.392,0.181,5.605c-0.257,0.992-4.902,8.288-7.474,12.146
	c-1.869,2.802-2.912,2.912-3.737,3.736c-0.935,0.936,0.137,4.91,0,6.54C1.607,60.094-0.328,66.034,0,69.133
	c0.088,0.838,0.191,2.405,0.934,2.803h6.541c-0.001-2.803-3.146-2.556-3.738-3.737c-0.934-1.868,0.561-9.688,0.935-11.21
	c0.612-2.487,1.868-1.869,2.803-3.737c0.8-1.602,0.087-1.533,0.934-2.803c1.869-2.803,7.286-6.539,7.286-6.539l-0.934,8.407
	l2.803,8.408l2.803,11.211h7.474c0-3.737-3.433-2.897-4.671-3.737c-1.042-0.705-1.662-3.43-1.869-4.671
	c-0.309-1.857-0.83-5.594-0.934-7.474c-0.078-1.399-0.167-4.214,0-5.605c0.255-2.139,0.99-6.441,1.868-8.408
	c0.687-1.538,3.204-4.008,3.737-5.605c0.221-0.664-0.381-2.214,0-2.803c0.4-0.62,2.066-0.988,2.803-0.934
	c1.695,0.125,4.897,1.427,6.539,1.868c2.521,0.678,10.276,1.868,10.276,1.868s-2.219,8.677-3.737,11.211
	c-0.6,1.002-2.476,2.616-2.802,3.738c-0.327,1.12,0.271,3.534,0,4.67c-0.657,2.744-3.849,7.577-4.671,10.276
	c-0.414,1.359-0.935,5.605-0.935,5.605h6.54c0-2.803-1.441-2.783-1.869-3.737c-1.119-2.494,2.169-8.037,3.736-10.276
	c0.568-0.812,2.315-1.94,2.803-2.803c0.474-0.837,0.615-2.829,0.935-3.735c1.25-3.554,7.474-13.08,7.474-13.08l2.804-1.869
	c0,0,2.802,2.803,4.671,13.079c0.254,1.398,0.383,4.297,0.935,5.605c0.326,0.776,1.498,2.047,1.868,2.803
	c1.622,3.317,4.671,14.014,4.671,14.014h7.474c0-3.737-3.446-2.879-4.671-3.737c-2.239-1.567-3.737-10.276-3.737-10.276
	s0.258-2.809,0-3.736c-0.176-0.637-0.725-1.241-0.934-1.869c-0.935-2.803-1.869-8.407-1.869-12.144c0-1.927-0.934-7.475,1.869-7.475
	s7.474,0,10.276-1.869c7.333-4.889,9.149-14.191,12.145-18.684C90.432,9.343,99.184,9.589,99.774,8.408z"/>
</svg>
