<?xml version="1.0" encoding="utf-8"?>
<!-- Generator: Adobe Illustrator 14.0.0, SVG Export Plug-In . SVG Version: 6.00 Build 43363)  -->
<!DOCTYPE svg PUBLIC "-//W3C//DTD SVG 1.0//EN" "http://www.w3.org/TR/2001/REC-SVG-20010904/DTD/svg10.dtd">
<svg version="1.0" id="Layer_1" xmlns="http://www.w3.org/2000/svg" xmlns:xlink="http://www.w3.org/1999/xlink" x="0px" y="0px"
	 width="93.646px" height="99.807px" viewBox="0 0 93.646 99.807" enable-background="new 0 0 93.646 99.807" xml:space="preserve">
<path id="path5474" d="M69.045,0c-4.691,0-8.509,3.87-8.509,8.614c0,4.778,3.817,8.625,8.509,8.625c4.715,0,8.556-3.847,8.556-8.625
	C77.601,3.87,73.76,0,69.045,0"/>
<path id="path5476" d="M4.658,59.453c-0.744-1.205-2.292-1.565-3.462-0.811c-1.192,0.739-1.548,2.304-0.815,3.513
	c0.745,1.182,2.292,1.54,3.487,0.799C5.035,62.201,5.391,60.637,4.658,59.453"/>
<path id="path5478" d="M6.407,66.489c-0.733-1.183-2.28-1.54-3.484-0.787c-1.159,0.741-1.525,2.305-0.781,3.489
	c0.731,1.205,2.28,1.551,3.45,0.811C6.772,69.261,7.14,67.698,6.407,66.489"/>
<path id="path5480" d="M8.156,73.548c-0.731-1.205-2.317-1.563-3.473-0.822c-1.206,0.739-1.548,2.305-0.815,3.512
	c0.732,1.183,2.316,1.539,3.474,0.801C8.534,76.296,8.888,74.72,8.156,73.548"/>
<path id="path5482" d="M9.88,80.586c-0.733-1.195-2.28-1.542-3.45-0.824c-1.193,0.764-1.547,2.329-0.815,3.512
	c0.733,1.207,2.28,1.563,3.486,0.822C10.26,83.357,10.625,81.781,9.88,80.586"/>
<path id="path5484" d="M50.815,94.921c-1.337,0.441-2.081,1.874-1.656,3.212c0.449,1.363,1.866,2.078,3.178,1.674
	c1.325-0.443,2.068-1.876,1.656-3.214C53.555,95.254,52.136,94.515,50.815,94.921"/>
<path id="path5486" d="M57.974,94.98c-1.324,0.405-2.044,1.84-1.619,3.179c0.425,1.361,1.855,2.103,3.166,1.672
	c1.324-0.443,2.057-1.876,1.63-3.213C60.716,95.29,59.321,94.539,57.974,94.98"/>
<path id="path5488" d="M65.193,95.002c-1.347,0.433-2.091,1.841-1.653,3.204c0.424,1.336,1.842,2.09,3.177,1.646
	c1.313-0.406,2.058-1.851,1.608-3.214C67.923,95.313,66.504,94.574,65.193,95.002"/>
<path id="path5490" d="M72.341,95.028c-1.311,0.442-2.056,1.875-1.619,3.214c0.438,1.326,1.855,2.065,3.168,1.636
	c1.323-0.431,2.056-1.84,1.63-3.177C75.095,95.338,73.665,94.609,72.341,95.028"/>
<path id="path5492" d="M89.488,38.201h-14.9l-6.854-15.67c-0.084-0.264-0.235-0.599-0.319-0.753
	c-0.023-0.046-0.049-0.073-0.049-0.096l-0.117-0.288l-0.022,0.026c-1.277-2.725-3.936-4.671-7.091-4.792
	c-0.614-0.036-1.17,0.023-1.724,0.144L20.976,25.66c-2.269,0.539-3.685,2.795-3.145,5.1c0.51,2.294,2.731,3.704,4.999,3.191
	l24.993-6.01L28.833,59.61H15.008h-0.023H8.511l4.501,17.894c0.153,0.539,0.153,0.657,0.32,0.943
	c0.637,1.053,1.983,1.386,2.999,0.742c0.558-0.322,0.911-0.896,1.019-1.481l2.692-8.29l0.096-0.337c0,0,12.43-0.048,12.525-0.048
	c2.493,0,4.631-0.691,5.897-2.806l5.753-9.641l12.82,12.9l-5.437,21.635h18.824c1.218,0,2.21-1.003,2.21-2.198
	c0-0.955-0.59-1.625-1.324-2.031l-8.117-4.538l3.898-15.553c0,0,0.971-3.285-2.102-6.318L54.593,49.862
	c0,0,5.613-9.318,9.207-15.303l4.182,9.58c0.332,0.766,0.887,1.388,1.549,1.817c0,0.023,0.046,0.023,0.046,0.059
	c0.661,0.431,1.454,0.692,2.304,0.692h17.523c2.342,0.026,4.221-1.911,4.242-4.239C93.671,40.101,91.792,38.238,89.488,38.201"/>
</svg>
