<?xml version="1.0" encoding="utf-8"?>
<!-- Generator: Adobe Illustrator 14.0.0, SVG Export Plug-In . SVG Version: 6.00 Build 43363)  -->
<!DOCTYPE svg PUBLIC "-//W3C//DTD SVG 1.0//EN" "http://www.w3.org/TR/2001/REC-SVG-20010904/DTD/svg10.dtd">
<svg version="1.0" id="Layer_1" xmlns="http://www.w3.org/2000/svg" xmlns:xlink="http://www.w3.org/1999/xlink" x="0px" y="0px"
	 width="100.001px" height="64.239px" viewBox="0 0 100.001 64.239" enable-background="new 0 0 100.001 64.239"
	 xml:space="preserve">
<g>
	<path d="M86.634,37.406c-7.38,0-13.366,5.986-13.366,13.379c0,7.368,5.986,13.342,13.366,13.342
		c7.393,0,13.367-5.974,13.367-13.342C100.001,43.393,94.027,37.406,86.634,37.406z"/>
	<path d="M86.634,50.785"/>
</g>
<path d="M9.97,53.573c1.319,5.986,6.671,10.666,13.043,10.666c6.459,0,11.848-4.58,13.093-10.666H9.97z"/>
<path d="M23.013,50.885"/>
<path d="M86.634,50.785"/>
<path d="M86.634,50.785"/>
<g>
	<path d="M25.452,22.857"/>
</g>
<path d="M85.577,28.296l-3.472-11.648C81.993,16.212,82.64,16,82.64,16l5.513-1.63l-0.759-7.767L80.91,6.056
	c-1.842,0.225-2.266-1.518-2.266-1.518l-0.759-2.701c-0.535-2.054-2.377-1.83-2.377-1.83H62.665c-1.842,1.406,0.323,2.49,0.323,2.49
	h7.878c0.76-0.125,1.183,0.758,1.183,0.758l4.381,27.133c-4.953,2.24-9.371,6.422-11.773,12.93H50.343
	c-9.185-6.919-5.078-16.851-5.078-16.851h3.56v-7.219H2.054v7.219h7.144c-9.943,9.509-9.185,23.547-9.185,23.547h69.385
	c0.46-9.147,7.977-16.453,17.236-16.453c4.045,0,7.729,1.456,10.679,3.784h2.688C99.404,31.656,92.945,28.172,85.577,28.296z"/>
</svg>
