<?xml version="1.0" encoding="utf-8"?>
<!-- Generator: Adobe Illustrator 15.1.0, SVG Export Plug-In . SVG Version: 6.00 Build 0)  -->
<!DOCTYPE svg PUBLIC "-//W3C//DTD SVG 1.1//EN" "http://www.w3.org/Graphics/SVG/1.1/DTD/svg11.dtd">
<svg version="1.1" id="Layer_1" xmlns="http://www.w3.org/2000/svg" xmlns:xlink="http://www.w3.org/1999/xlink" x="0px" y="0px"
	 width="99.939px" height="63.157px" viewBox="0 0 99.939 63.157" enable-background="new 0 0 99.939 63.157" xml:space="preserve">
<path fill="#FF6E27" d="M10.892,17.19"/>
<path fill="#FF6E27" d="M10.892,6.294C4.878,6.303,0.015,11.169,0,17.19c0.015,5.98,4.878,10.842,10.892,10.841
	c5.989,0.001,10.854-4.861,10.841-10.841C21.745,11.169,16.88,6.303,10.892,6.294z M10.892,24.084
	c-3.832-0.001-6.926-3.098-6.946-6.894c0.021-3.842,3.114-6.936,6.946-6.947c3.808,0.011,6.902,3.105,6.896,6.947
	C17.793,20.986,14.699,24.083,10.892,24.084z"/>
<path fill="#FF6E27" d="M10.892,17.19"/>
<path fill="#FF6E27" d="M45.816,52.016c-8.298-0.029-8.298,11.146,0,11.141h48.068c8.075,0.008,8.075-11.17,0-11.141H45.816
	L45.816,52.016z"/>
<polygon fill="#FF6E27" points="60.056,13.541 60.056,3.398 55.76,3.398 55.76,13.541 "/>
<path fill="#FF6E27" d="M57.907,8.495"/>
<polygon fill="#FF6E27" points="66.603,3.697 66.603,1.498 49.264,1.498 49.264,3.697 "/>
<path fill="#FF6E27" d="M57.958,2.599"/>
<path fill="#FF6E27" d="M68.101,0H95.83c3.689-0.018,3.689,5.269,0,5.246H68.101C64.527,5.269,64.527-0.018,68.101,0L68.101,0z"/>
<path fill="#FF6E27" d="M20.084,0h27.38c3.689-0.018,3.689,5.269,0,5.246h-27.38C16.163,5.269,16.11-0.018,20.084,0L20.084,0z"/>
<path fill="#FF6E27" d="M63.806,23.534"/>
<path fill="#FF6E27" d="M75.598,23.534"/>
<path fill="#FF6E27" d="M99.431,36.174l-5.547-13.391c-1.967-4.91-6.234-9.505-13.89-9.491H11.24
	c-4.366-0.015-5.306,5.673-1.449,7.146l31.627,12.589l2.798,6.994c0.574,2.19,2.353,4.784,5.896,4.798h43.02
	C98.045,44.782,101.391,40.774,99.431,36.174z M67.501,29.479h-7.395V17.587h7.395V29.479z M79.244,29.479h-7.347V17.587h7.347
	V29.479z M83.74,29.531V18.089c2.297,0.547,4.588,2.594,6.097,5.996l2.346,5.446H83.74z"/>
</svg>
