<?xml version="1.0" encoding="utf-8"?>
<!-- Generator: Adobe Illustrator 15.1.0, SVG Export Plug-In . SVG Version: 6.00 Build 0)  -->
<!DOCTYPE svg PUBLIC "-//W3C//DTD SVG 1.1//EN" "http://www.w3.org/Graphics/SVG/1.1/DTD/svg11.dtd">
<svg version="1.1" id="Layer_1" xmlns="http://www.w3.org/2000/svg" xmlns:xlink="http://www.w3.org/1999/xlink" x="0px" y="0px"
	 width="100px" height="71.312px" viewBox="0 0 100 71.312" enable-background="new 0 0 100 71.312" xml:space="preserve">
<path id="path5092" fill="#E80C7A" d="M20.904,17.585h1.146c3.437,0,6.205-2.798,6.205-6.271c0-3.463-2.769-6.273-6.205-6.273
	h-1.146V17.585L20.904,17.585z"/>
<path id="path5094" fill="#E80C7A" d="M35.896,12.953l3.461-6.987c0.44-0.975,1.574-1.676,2.598-1.676l12.591,0.011
	c1.185,0,2.122-0.96,2.122-2.143C56.668,0.963,55.729,0,54.546,0H41.955c-2.73,0-5.059,1.518-6.266,3.772l-5.424,10.954
	L35.896,12.953z"/>
<path id="path5096" fill="#E80C7A" d="M36.008,16.748l8.326,12.173c0.864,1.295,2.305,2.146,3.961,2.146
	c0.499,0,0.963-0.086,1.414-0.224l36.652-11.484c0.354-0.072,0.744-0.11,1.171-0.11c1.889,0,3.559,0.974,4.521,2.44l2.731,4.214
	l-16.456,5.473c-8.715,2.91-15.029,11.214-15.029,21.021H33.445c0-12.197-9.799-22.117-21.867-22.117l-9.166-0.013
	c0-1.802,1.206-3.343,2.841-3.811L36.008,16.748z"/>
<path id="path5098" fill="#E80C7A" d="M14.895,61.874c3.06,0,5.545-2.54,5.545-5.632c0-3.132-2.484-5.646-5.545-5.646
	c-3.097,0-5.582,2.514-5.582,5.646C9.312,59.335,11.798,61.874,14.895,61.874 M29.801,56.242c0,8.318-6.678,15.071-14.906,15.07
	C6.68,71.312,0,64.559,0,56.242c0-8.342,6.68-15.07,14.895-15.069C23.122,41.173,29.801,47.899,29.801,56.242"/>
<path id="path5100" fill="#E80C7A" d="M83.57,60.825c3.4,0,6.13-2.76,6.13-6.186c0-3.428-2.729-6.198-6.13-6.198
	c-3.365,0-6.119,2.771-6.119,6.198C77.451,58.064,80.205,60.825,83.57,60.825 M100,54.628c0,9.156-7.337,16.586-16.395,16.586
	c-9.069,0-16.383-7.431-16.383-16.586c0-9.13,7.313-16.562,16.383-16.562C92.663,38.065,100,45.496,100,54.628"/>
</svg>
