<?xml version="1.0" encoding="utf-8"?>
<!-- Generator: Adobe Illustrator 15.1.0, SVG Export Plug-In  -->
<!DOCTYPE svg PUBLIC "-//W3C//DTD SVG 1.1//EN" "http://www.w3.org/Graphics/SVG/1.1/DTD/svg11.dtd" [
	<!ENTITY ns_flows "http://ns.adobe.com/Flows/1.0/">
]>
<svg version="1.1"
	 xmlns="http://www.w3.org/2000/svg" xmlns:xlink="http://www.w3.org/1999/xlink" xmlns:a="http://ns.adobe.com/AdobeSVGViewerExtensions/3.0/"
	 x="0px" y="0px" width="75px" height="126px" viewBox="0 -0.166 75 126"
	 overflow="visible" enable-background="new 0 -0.166 75 126" xml:space="preserve">
<defs>
</defs>
<linearGradient id="SVGID_1_" gradientUnits="userSpaceOnUse" x1="37.4995" y1="6.3208" x2="37.4995" y2="116.836">
	<stop  offset="0" style="stop-color:#F52819"/>
	<stop  offset="0.2964" style="stop-color:#E52518"/>
	<stop  offset="0.6438" style="stop-color:#D92317"/>
	<stop  offset="1" style="stop-color:#D52217"/>
</linearGradient>
<rect fill="url(#SVGID_1_)" width="75" height="125.668"/>
<polygon fill="#FFFFFF" points="42.609,54.195 57.057,54.195 57.057,88.664 "/>
<polygon fill="#FFFFFF" points="32.424,54.195 17.96,54.195 17.96,88.664 "/>
<polygon fill="#FFFFFF" points="37.515,66.896 46.725,88.662 40.688,88.662 37.932,81.73 31.189,81.73 "/>
<path fill="#FFFFFF" d="M60.012,54.195c0.926,0,1.664,0.744,1.664,1.673c0,0.944-0.738,1.69-1.672,1.69s-1.689-0.746-1.689-1.69
	c0-0.929,0.756-1.673,1.689-1.673H60.012z M60.004,54.48c-0.74,0-1.337,0.623-1.337,1.395c0,0.776,0.597,1.396,1.345,1.396
	c0.738,0.008,1.33-0.622,1.33-1.396c0-0.772-0.592-1.395-1.33-1.395H60.004z M59.698,56.846h-0.339V54.98
	c0.158-0.028,0.312-0.054,0.562-0.054c0.297,0,0.484,0.058,0.608,0.154c0.104,0.076,0.161,0.208,0.161,0.381
	c0,0.241-0.157,0.399-0.363,0.451v0.018c0.164,0.03,0.27,0.178,0.304,0.455c0.048,0.292,0.086,0.405,0.118,0.461h-0.344
	c-0.043-0.056-0.082-0.228-0.123-0.477c-0.038-0.222-0.162-0.315-0.391-0.315h-0.196v0.792H59.698z M59.698,55.796h0.204
	c0.24,0,0.446-0.082,0.446-0.299c0-0.166-0.12-0.313-0.431-0.313c-0.102,0-0.168,0-0.218,0.006v0.606H59.698z"/>
<path fill="#FFFFFF" d="M23.211,103.074l-0.457-2.703c-0.134-0.784-0.297-2.001-0.419-2.843h-0.046
	c-0.138,0.846-0.325,2.101-0.463,2.849l-0.493,2.699h1.877V103.074z M21.086,104.839l-0.595,3.001h-2.206l2.747-12.488h2.697
	l2.493,12.488h-2.214l-0.583-3.001H21.086z"/>
<path fill="#FFFFFF" d="M31.231,102.26c0-0.164,0-0.361-0.034-0.541c-0.086-0.613-0.419-1.172-0.948-1.172
	c-0.897,0-1.234,1.305-1.234,2.828c0,1.756,0.479,2.757,1.203,2.757c0.339,0,0.726-0.174,0.938-0.907
	c0.048-0.145,0.076-0.346,0.076-0.575V102.26z M33.496,95.018v10.232c0,0.816,0.04,1.809,0.074,2.592h-1.955l-0.13-1.042h-0.046
	c-0.327,0.641-1.041,1.192-1.889,1.192c-1.869,0-2.796-2.057-2.796-4.653c0-3.159,1.386-4.695,2.886-4.695
	c0.782,0,1.299,0.381,1.554,0.936h0.038v-4.56h2.264V95.018z"/>
<path fill="#FFFFFF" d="M38.195,106.262c0.859,0,1.079-1.618,1.079-2.963c0-1.272-0.22-2.932-1.117-2.932
	c-0.956,0-1.157,1.659-1.157,2.932c0,1.54,0.255,2.963,1.175,2.963H38.195z M38.151,107.99c-2.075,0-3.385-1.671-3.385-4.653
	c0-3.253,1.68-4.695,3.435-4.695c2.061,0,3.35,1.747,3.35,4.647c0,3.725-2.02,4.701-3.379,4.701H38.151z"/>
<path fill="#FFFFFF" d="M45.073,104.607c0,0.224,0.04,0.438,0.085,0.574c0.229,0.763,0.617,0.95,0.92,0.95
	c0.874,0,1.23-1.103,1.23-2.87c0-1.604-0.377-2.713-1.24-2.713c-0.429,0-0.79,0.465-0.914,0.963
	c-0.041,0.156-0.081,0.398-0.081,0.572V104.607z M42.814,95.018h2.259v4.713h0.036c0.446-0.693,1.039-1.091,1.9-1.091
	c1.703,0,2.56,1.931,2.56,4.446c0,3.195-1.28,4.904-2.931,4.904c-0.794,0-1.318-0.351-1.791-1.234h-0.046l-0.124,1.084h-1.937
	c0.032-0.755,0.075-1.773,0.075-2.59V95.018H42.814z"/>
<path fill="#FFFFFF" d="M54.979,102.451c0.008-1.274-0.359-2.17-1.078-2.17c-0.822,0-1.17,1.203-1.193,2.17H54.979z M52.699,104.041
	c0.025,1.638,0.889,2.172,1.963,2.172c0.684,0,1.266-0.146,1.697-0.314l0.309,1.619c-0.602,0.26-1.529,0.42-2.417,0.42
	c-2.428,0-3.746-1.646-3.746-4.467c0-3.029,1.532-4.842,3.538-4.842c1.941,0,3.017,1.603,3.017,4.229
	c0,0.597-0.028,0.932-0.069,1.198L52.699,104.041z"/>
</svg>
