<?xml version="1.0" encoding="utf-8"?>
<!-- Generator: Adobe Illustrator 16.0.0, SVG Export Plug-In . SVG Version: 6.00 Build 0)  -->
<!DOCTYPE svg PUBLIC "-//W3C//DTD SVG 1.1//EN" "http://www.w3.org/Graphics/SVG/1.1/DTD/svg11.dtd">
<svg version="1.1" id="Layer_1" xmlns="http://www.w3.org/2000/svg" xmlns:xlink="http://www.w3.org/1999/xlink" x="0px" y="0px"
	 width="567px" height="800px" viewBox="0 0 567 800" enable-background="new 0 0 567 800" xml:space="preserve">
<filter  height="150%" width="150%" y="-5%" x="-5%" id="drop-shadow">
	<feFlood  id="dropShadowColor" flood-opacity="0.5" flood-color="black" result="floodFill"></feFlood>
	<feComposite  result="coloredAlpha" in2="SourceAlpha" in="floodFill" operator="in"></feComposite>
	<feGaussianBlur  result="blur" stdDeviation="8" in="coloredAlpha"></feGaussianBlur>
	<feComposite  result="maskedOffsetBlur" in2="SourceGraphic" in="blur" operator="out"></feComposite>
	<feMerge>
		<feMergeNode  in="maskedOffsetBlur"></feMergeNode>
		<feMergeNode  in="SourceGraphic"></feMergeNode>
	</feMerge>
</filter>
<g id="logo" filter="url(#drop-shadow)">
	<polygon fill="#E44D26" points="114.849,654.648 74.807,205.522 514.807,205.522 474.721,654.576 294.537,704.53 	"/>
	<polygon fill="#F16529" points="294.807,666.348 440.403,625.982 474.661,242.246 294.807,242.246 	"/>
	<polygon fill="#EBEBEB" points="294.807,408.82 221.919,408.82 216.883,352.414 294.807,352.414 294.807,297.33 294.617,297.33 
		156.684,297.33 158.003,312.108 171.541,463.902 294.807,463.902 	"/>
	<polygon fill="#EBEBEB" points="294.807,551.876 294.565,551.942 233.219,535.376 229.297,491.446 199.487,491.446 
		174.003,491.446 181.721,577.934 294.555,609.258 294.807,609.186 	"/>
	<path d="M115.745,83.47h27.991v27.656h25.606V83.47h27.994v83.75h-27.994v-28.044h-25.606v28.044h-27.989L115.745,83.47
		L115.745,83.47z"/>
	<path d="M234.149,111.244h-24.643V83.47h77.292v27.774h-24.654v55.976h-27.995V111.244L234.149,111.244z"/>
	<path d="M299.065,83.47h29.189l17.956,29.428l17.938-29.428h29.199v83.75h-27.882v-41.512l-19.258,29.778h-0.482l-19.271-29.778
		v41.512h-27.39V83.47z"/>
	<path d="M407.277,83.47h28v56.068h39.367v27.682h-67.367V83.47z"/>
	<polygon fill="#FFFFFF" points="294.617,408.82 294.617,463.902 362.447,463.902 356.051,535.342 294.617,551.922 294.617,609.23 
		407.541,577.934 408.367,568.626 421.312,423.612 422.657,408.82 407.815,408.82 	"/>
	<polygon fill="#FFFFFF" points="294.617,297.33 294.617,331.54 294.617,352.278 294.617,352.414 427.493,352.414 427.493,352.414 
		427.669,352.414 428.773,340.032 431.283,312.108 432.601,297.33 	"/>
</g>
</svg>
