<?xml version="1.0" encoding="UTF-8" standalone="no"?>
<!-- Created with Inkscape (http://www.inkscape.org/) -->
<svg xmlns:svg="http://www.w3.org/2000/svg" xmlns="http://www.w3.org/2000/svg" xmlns:xlink="http://www.w3.org/1999/xlink" version="1.0" width="550" height="480" viewBox="0 0 414.772 500.994" id="Layer_2" xml:space="preserve">
<defs id="defs3017" />
<g transform="translate(-3.8164787,-80)" id="g3272">
<g transform="translate(-18.434315,0)" id="g3132">
<circle cx="39.4" cy="141.48" r="3.555" transform="matrix(1.296365,0,0,1.296365,202.38592,-57.340438)" id="circle3554" />
<rect width="27.651466" height="9.217145" x="285.73181" y="121.45683" id="rect3556" />
<circle cx="39.4" cy="141.48" r="3.555" transform="matrix(1.296365,0,0,1.296365,220.82023,-57.340438)" id="circle3558" />
<circle cx="39.4" cy="141.48" r="3.555" transform="matrix(1.296365,0,0,1.296365,202.38592,-38.906127)" id="circle3560" />
<circle cx="39.4" cy="141.48" r="3.555" transform="matrix(1.296365,0,0,1.296365,220.82023,-38.906126)" id="circle3562" />
<circle cx="39.4" cy="141.48" r="3.555" transform="matrix(1.296365,0,0,1.296365,239.25454,-38.906126)" id="circle3564" />
<rect width="27.651466" height="9.217145" x="304.16614" y="139.89114" id="rect3566" />
<circle cx="39.4" cy="141.48" r="3.555" transform="matrix(1.296365,0,0,1.296365,202.38592,-20.471816)" id="circle3568" />
<rect width="27.651466" height="9.217145" x="267.29752" y="158.32545" id="rect3570" />
<rect width="27.651466" height="9.217145" x="304.16614" y="158.32544" id="rect3572" />
<rect width="27.651466" height="9.217145" x="248.8632" y="176.75975" id="rect3574" />
<circle cx="39.4" cy="141.48" r="3.555" transform="matrix(1.296365,0,0,1.296365,239.25454,-2.0375037)" id="circle3576" />
<circle cx="39.4" cy="141.48" r="3.555" transform="matrix(1.296365,0,0,1.296365,257.68885,-2.0375037)" id="circle3578" />
<rect width="27.651466" height="9.217145" x="322.60043" y="176.75977" id="rect3580" />
<rect width="27.651466" height="9.217145" x="248.8632" y="195.19408" id="rect3588" />
<rect width="27.651466" height="9.217145" x="304.16614" y="195.19408" id="rect3590" />
<rect width="27.651466" height="9.217145" x="341.03476" y="195.19408" id="rect3592" />
<circle cx="39.4" cy="141.48" r="3.555" transform="matrix(1.296365,0,0,1.296365,239.25454,16.396807)" id="circle3594" />
<rect width="27.651466" height="9.217145" x="248.8632" y="213.62837" id="rect3596" />
<rect width="27.651466" height="9.217145" x="285.73181" y="213.62839" id="rect3598" />
<circle cx="39.4" cy="141.48" r="3.555" transform="matrix(1.296365,0,0,1.296365,276.12316,34.831118)" id="circle3600" />
<circle cx="39.4" cy="141.48" r="3.555" transform="matrix(1.296365,0,0,1.296365,294.55748,34.831118)" id="circle3602" />
<g transform="translate(-1.8497366,0)" id="g2615">
<text x="231.22548" y="130.67398" id="text3604" xml:space="preserve" style="font-size:18px;font-family:DejaVu Sans">U</text>
<text x="231.74756" y="149.10829" id="text3608" xml:space="preserve" style="font-size:18px;font-family:DejaVu Sans">V</text>
<text x="229.15523" y="167.31757" id="text3612" xml:space="preserve" style="font-size:18px;font-family:DejaVu Sans">W</text>
<text x="231.73405" y="185.97691" id="text3616" xml:space="preserve" style="font-size:18px;font-family:DejaVu Sans">X</text>
<text x="231.76105" y="204.41122" id="text3620" xml:space="preserve" style="font-size:18px;font-family:DejaVu Sans">Y</text>
<text x="232.27863" y="222.84554" id="text3624" xml:space="preserve" style="font-size:18px;font-family:DejaVu Sans">Z</text>
</g>
</g>
<g id="g3169">
<circle cx="39.4" cy="141.48" r="3.555" transform="matrix(1.296365,0,0,1.296365,-9.6086576,-57.340437)" id="circle2870" />
<rect width="27.651466" height="9.217145" x="55.302933" y="121.45683" id="rect3010" />
<circle cx="39.4" cy="141.48" r="3.555" transform="matrix(1.296365,0,0,1.296365,27.496285,-38.906126)" id="circle3324" />
<circle cx="39.4" cy="141.48" r="3.555" transform="matrix(1.296365,0,0,1.296365,45.694276,-38.611276)" id="circle3326" />
<circle cx="39.4" cy="141.48" r="3.555" transform="matrix(1.296365,0,0,1.296365,64.122679,-38.906126)" id="circle3328" />
<rect width="27.651466" height="9.217145" x="36.868622" y="158.32544" id="rect3330" />
<circle cx="39.4" cy="141.48" r="3.555" transform="matrix(1.296365,0,0,1.296365,27.23125,-20.471815)" id="circle3332" />
<rect width="27.651466" height="9.217145" x="92.171555" y="158.32544" id="rect3334" />
<circle cx="39.4" cy="141.48" r="3.555" transform="matrix(1.296365,0,0,1.296365,82.623628,-20.471815)" id="circle3336" />
<rect width="27.651466" height="9.217145" x="36.868622" y="176.75977" id="rect3338" />
<circle cx="39.4" cy="141.48" r="3.555" transform="matrix(1.296365,0,0,1.296365,27.17162,-2.0375044)" id="circle3340" />
<circle cx="39.4" cy="141.48" r="3.555" transform="matrix(1.296365,0,0,1.296365,45.694276,-1.8597136)" id="circle3342" />
<circle cx="39.4" cy="141.48" r="3.555" transform="matrix(1.296365,0,0,1.296365,-9.6086576,16.396807)" id="circle3412" />
<circle cx="39.4" cy="141.48" r="3.555" transform="matrix(1.296365,0,0,1.296365,-9.6086574,34.831118)" id="circle3414" />
<circle cx="39.4" cy="141.48" r="3.555" transform="matrix(1.296365,0,0,1.296365,8.8256537,34.831118)" id="circle3416" />
<rect width="27.651466" height="9.217145" x="73.737244" y="213.62837" id="rect3420" />
<circle cx="39.4" cy="141.48" r="3.555" transform="matrix(1.296365,0,0,1.296365,64.128587,34.831118)" id="circle3422" />
<rect width="27.651466" height="9.217145" x="36.868622" y="232.06268" id="rect3424" />
<rect width="27.651466" height="9.217145" x="73.737244" y="232.06268" id="rect3426" />
<circle cx="39.4" cy="141.48" r="3.555" transform="matrix(1.296365,0,0,1.296365,64.128587,53.265429)" id="circle3428" />
<circle cx="39.4" cy="141.48" r="3.555" transform="matrix(1.296365,0,0,1.296365,-9.6086576,71.69974)" id="circle3458" />
<circle cx="39.4" cy="141.48" r="3.555" transform="matrix(1.296365,0,0,1.296365,8.8256535,71.69974)" id="circle3460" />
<circle cx="39.4" cy="141.48" r="3.555" transform="matrix(1.296365,0,0,1.296365,27.259965,71.69974)" id="circle3462" />
<circle cx="39.4" cy="141.48" r="3.555" transform="matrix(1.296365,0,0,1.296365,45.694276,71.69974)" id="circle3464" />
<circle cx="39.4" cy="141.48" r="3.555" transform="matrix(1.296365,0,0,1.296365,-9.6086576,90.134051)" id="circle3466" />
<circle cx="39.4" cy="141.48" r="3.555" transform="matrix(1.296365,0,0,1.296365,8.8256537,90.134051)" id="circle3468" />
<circle cx="39.4" cy="141.48" r="3.555" transform="matrix(1.296365,0,0,1.296365,-9.6086576,108.56836)" id="circle3470" />
<rect width="27.651466" height="9.217145" x="55.302933" y="287.36563" id="rect3472" />
<rect width="27.651466" height="9.217145" x="92.171555" y="287.36563" id="rect3474" />
<rect width="27.651466" height="9.217145" x="129.04018" y="287.36563" id="rect3476" />
<rect width="27.651466" height="9.217145" x="36.868622" y="305.79993" id="rect3478" />
<circle cx="39.4" cy="141.48" r="3.555" transform="matrix(1.296365,0,0,1.296365,27.259965,127.00267)" id="circle3480" />
<rect width="27.651466" height="9.217145" x="92.171555" y="305.79996" id="rect3482" />
<circle cx="39.4" cy="141.48" r="3.555" transform="matrix(1.296365,0,0,1.296365,-9.6086576,145.43698)" id="circle3484" />
<rect width="27.651466" height="9.217145" x="55.302933" y="324.23425" id="rect3486" />
<circle cx="39.4" cy="141.48" r="3.555" transform="matrix(1.296365,0,0,1.296365,45.694276,145.43698)" id="circle3488" />
<circle cx="39.4" cy="141.48" r="3.555" transform="matrix(1.296365,0,0,1.296365,64.128587,145.43698)" id="circle3490" />
<rect width="27.651466" height="9.217145" x="36.868622" y="342.66858" id="rect3492" />
<rect width="27.651466" height="9.217145" x="73.737244" y="342.66858" id="rect3494" />
<rect width="27.651466" height="9.217145" x="36.868622" y="361.10287" id="rect3496" />
<circle cx="39.4" cy="141.48" r="3.555" transform="matrix(1.296365,0,0,1.296365,27.259965,182.30561)" id="circle3498" />
<rect width="27.651466" height="9.217145" x="36.868622" y="379.5372" id="rect3500" />
<rect width="27.651466" height="9.217145" x="73.737244" y="379.5372" id="rect3502" />
<rect width="27.651466" height="9.217145" x="110.60587" y="379.5372" id="rect3504" />
<circle cx="39.4" cy="141.48" r="3.555" transform="matrix(1.296365,0,0,1.296365,-9.6086576,219.17423)" id="circle3506" />
<rect width="27.651466" height="9.217145" x="55.302933" y="397.9715" id="rect3508" />
<rect width="27.651466" height="9.217145" x="92.171555" y="397.9715" id="rect3510" />
<circle cx="39.4" cy="141.48" r="3.555" transform="matrix(1.296365,0,0,1.296365,82.562898,219.17423)" id="circle3512" />
<rect width="27.651466" height="9.217145" x="36.868622" y="416.40579" id="rect3514" />
<rect width="27.651466" height="9.217145" x="73.737244" y="416.40582" id="rect3516" />
<circle cx="39.4" cy="141.48" r="3.555" transform="matrix(1.296365,0,0,1.296365,64.128587,237.60854)" id="circle3518" />
<rect width="27.651466" height="9.217145" x="129.04018" y="416.40582" id="rect3520" />
<circle cx="39.4" cy="141.48" r="3.555" transform="matrix(1.296365,0,0,1.296365,-9.6086574,256.04285)" id="circle3522" />
<rect width="27.651466" height="9.217145" x="55.302933" y="434.84012" id="rect3524" />
<circle cx="39.4" cy="141.48" r="3.555" transform="matrix(1.296365,0,0,1.296365,45.694276,256.04285)" id="circle3526" />
<circle cx="39.4" cy="141.48" r="3.555" transform="matrix(1.296365,0,0,1.296365,27.259965,274.47716)" id="circle3528" />
<circle cx="39.4" cy="141.48" r="3.555" transform="matrix(1.296365,0,0,1.296365,8.8256537,274.47716)" id="circle3530" />
<circle cx="39.4" cy="141.48" r="3.555" transform="matrix(1.296365,0,0,1.296365,-9.6086574,274.47716)" id="circle3532" />
<rect width="27.651466" height="9.217145" x="36.868622" y="471.70874" id="rect3534" />
<g id="g2573">
<text x="17.138149" y="130.67398" id="text3309" xml:space="preserve" style="font-size:18px;font-family:DejaVu Sans">A</text>
<text x="16.953625" y="149.10829" id="text3344" xml:space="preserve" style="font-size:18px;font-family:DejaVu Sans">B</text>
<text x="16.535072" y="167.31757" id="text3350" xml:space="preserve" style="font-size:18px;font-family:DejaVu Sans">C</text>
<text x="16.409058" y="185.97691" id="text3356" xml:space="preserve" style="font-size:18px;font-family:DejaVu Sans">D</text>
<text x="16.904119" y="204.41122" id="text3360" xml:space="preserve" style="font-size:18px;font-family:DejaVu Sans">E</text>
<text x="17.322672" y="222.84554" id="text3364" xml:space="preserve" style="font-size:18px;font-family:DejaVu Sans">F</text>
<text x="16.202032" y="241.05481" id="text3368" xml:space="preserve" style="font-size:18px;font-family:DejaVu Sans">G</text>
<text x="16.634085" y="259.71414" id="text3372" xml:space="preserve" style="font-size:18px;font-family:DejaVu Sans">H</text>
<text x="20.693594" y="278.14847" id="text3376" xml:space="preserve" style="font-size:18px;font-family:DejaVu Sans">I</text>
<text x="19.145401" y="296.58276" id="text3380" xml:space="preserve" style="font-size:18px;font-family:DejaVu Sans">J</text>
<text x="16.481066" y="315.01709" id="text3384" xml:space="preserve" style="font-size:18px;font-family:DejaVu Sans">K</text>
<text x="17.813232" y="333.45139" id="text3388" xml:space="preserve" style="font-size:18px;font-family:DejaVu Sans">L</text>
<text x="15.621459" y="351.88571" id="text3392" xml:space="preserve" style="font-size:18px;font-family:DejaVu Sans">M</text>
<text x="16.683592" y="370.32001" id="text3396" xml:space="preserve" style="font-size:18px;font-family:DejaVu Sans">N</text>
<text x="16.085016" y="388.75433" id="text3400" xml:space="preserve" style="font-size:18px;font-family:DejaVu Sans">O</text>
<text x="16.058014" y="425.62296" id="text3404" xml:space="preserve" style="font-size:18px;font-family:DejaVu Sans">Q</text>
<text x="16.82761" y="407.18866" id="text3408" xml:space="preserve" style="font-size:18px;font-family:DejaVu Sans">P</text>
<text x="16.022009" y="444.05728" id="text3536" xml:space="preserve" style="font-size:18px;font-family:DejaVu Sans">R</text>
<text x="17.205658" y="462.49158" id="text3540" xml:space="preserve" style="font-size:18px;font-family:DejaVu Sans">S</text>
<text x="17.62421" y="480.9259" id="text3544" xml:space="preserve" style="font-size:18px;font-family:DejaVu Sans">T</text>
</g>
<use transform="translate(-18.43431,18.434311)" id="use2703" x="0" y="0" width="414.772" height="500.99399" xlink:href="#rect3010" />
</g>
<g transform="translate(-18.434314,64.295099)" id="g3051">
<use transform="translate(211.99458,119.82302)" id="use2707" x="0" y="0" width="414.772" height="500.99399" xlink:href="#rect3010" />
<use transform="translate(248.8632,119.82301)" id="use2709" x="0" y="0" width="414.772" height="500.99399" xlink:href="#rect3010" />
<use id="use2711" x="0" y="0" width="414.772" height="500.99399" xlink:href="#use2709" />
<use transform="translate(285.73182,119.82301)" id="use2713" x="0" y="0" width="414.772" height="500.99399" xlink:href="#rect3010" />
<use transform="translate(322.60045,119.82301)" id="use2715" x="0" y="0" width="414.772" height="500.99399" xlink:href="#rect3010" />
<use transform="translate(211.99458,119.82302)" id="use2717" x="0" y="0" width="414.772" height="500.99399" xlink:href="#circle2870" />
<use transform="translate(211.99458,138.25733)" id="use2719" x="0" y="0" width="414.772" height="500.99399" xlink:href="#circle2870" />
<use transform="translate(230.42889,138.25733)" id="use2721" x="0" y="0" width="414.772" height="500.99399" xlink:href="#circle2870" />
<use transform="translate(230.42889,138.25733)" id="use2723" x="0" y="0" width="414.772" height="500.99399" xlink:href="#rect3010" />
<use transform="translate(267.29751,138.25733)" id="use2725" x="0" y="0" width="414.772" height="500.99399" xlink:href="#rect3010" />
<use transform="translate(304.16613,138.25732)" id="use2727" x="0" y="0" width="414.772" height="500.99399" xlink:href="#rect3010" />
<use transform="translate(211.99458,156.69164)" id="use2779" x="0" y="0" width="414.772" height="500.99399" xlink:href="#circle2870" />
<use transform="translate(18.434309,4.0522843e-6)" id="use2781" x="0" y="0" width="414.772" height="500.99399" xlink:href="#use2779" />
<use transform="translate(18.434311,0)" id="use2783" x="0" y="0" width="414.772" height="500.99399" xlink:href="#use2781" />
<use transform="translate(18.434309,18.434308)" id="use2785" x="0" y="0" width="414.772" height="500.99399" xlink:href="#use2723" />
<use transform="translate(36.868622,9.8155382e-8)" id="use2787" x="0" y="0" width="414.772" height="500.99399" xlink:href="#use2785" />
<use transform="translate(2.324722e-7,18.434311)" id="use2789" x="0" y="0" width="414.772" height="500.99399" xlink:href="#use2779" />
<use transform="translate(18.434311,7.8636818e-8)" id="use2791" x="0" y="0" width="414.772" height="500.99399" xlink:href="#use2789" />
<use transform="translate(18.434311,0)" id="use2793" x="0" y="0" width="414.772" height="500.99399" xlink:href="#use2791" />
<use transform="translate(18.434311,0)" id="use2795" x="0" y="0" width="414.772" height="500.99399" xlink:href="#use2793" />
<use transform="translate(18.434313,18.434307)" id="use2797" x="0" y="0" width="414.772" height="500.99399" xlink:href="#use2785" />
<use transform="translate(-2.3247221e-7,18.434311)" id="use2799" x="0" y="0" width="414.772" height="500.99399" xlink:href="#use2789" />
<use transform="translate(18.434311,-4.2724257e-8)" id="use2801" x="0" y="0" width="414.772" height="500.99399" xlink:href="#use2799" />
<use transform="translate(18.434311,0)" id="use2803" x="0" y="0" width="414.772" height="500.99399" xlink:href="#use2801" />
<use transform="translate(18.434312,0)" id="use2805" x="0" y="0" width="414.772" height="500.99399" xlink:href="#use2803" />
<use transform="translate(18.434311,0)" id="use2807" x="0" y="0" width="414.772" height="500.99399" xlink:href="#use2805" />
<use transform="translate(36.868622,36.868622)" id="use2809" x="0" y="0" width="414.772" height="500.99399" xlink:href="#use2789" />
<use transform="translate(36.868622,36.868622)" id="use2811" x="0" y="0" width="414.772" height="500.99399" xlink:href="#use2791" />
<use transform="translate(36.868622,36.868622)" id="use2813" x="0" y="0" width="414.772" height="500.99399" xlink:href="#use2793" />
<use transform="translate(36.868622,36.868622)" id="use2815" x="0" y="0" width="414.772" height="500.99399" xlink:href="#use2795" />
<use transform="translate(-73.737245,36.868622)" id="use2817" x="0" y="0" width="414.772" height="500.99399" xlink:href="#use2797" />
<use id="use2819" x="0" y="0" width="414.772" height="500.99399" xlink:href="#use2779" />
<use id="use2821" x="0" y="0" width="414.772" height="500.99399" xlink:href="#use2781" />
<use id="use2823" x="0" y="0" width="414.772" height="500.99399" xlink:href="#use2783" />
<use id="use2825" x="0" y="0" width="414.772" height="500.99399" xlink:href="#use2785" />
<use id="use2827" x="0" y="0" width="414.772" height="500.99399" xlink:href="#use2787" />
<use transform="translate(73.737242,73.737248)" id="use2829" x="0" y="0" width="414.772" height="500.99399" xlink:href="#use2779" />
<use transform="translate(73.737244,73.737244)" id="use2831" x="0" y="0" width="414.772" height="500.99399" xlink:href="#use2781" />
<use transform="translate(73.737244,73.737244)" id="use2833" x="0" y="0" width="414.772" height="500.99399" xlink:href="#use2783" />
<use transform="translate(-55.302932,73.73724)" id="use2845" x="0" y="0" width="414.772" height="500.99399" xlink:href="#use2825" />
<use transform="translate(-55.302931,73.737251)" id="use2847" x="0" y="0" width="414.772" height="500.99399" xlink:href="#use2827" />
<use transform="translate(36.868622,18.434311)" id="use2849" x="0" y="0" width="414.772" height="500.99399" xlink:href="#use2829" />
<use transform="translate(36.868622,18.434311)" id="use2851" x="0" y="0" width="414.772" height="500.99399" xlink:href="#use2831" />
<use transform="translate(36.868622,18.434311)" id="use2855" x="0" y="0" width="414.772" height="500.99399" xlink:href="#use2845" />
<use transform="translate(36.868622,18.434311)" id="use2857" x="0" y="0" width="414.772" height="500.99399" xlink:href="#use2847" />
<use transform="translate(-36.868622,3.3648014e-7)" id="use2859" x="0" y="0" width="414.772" height="500.99399" xlink:href="#use2855" />
<use transform="translate(-18.434316,147.4745)" id="use2861" x="0" y="0" width="414.772" height="500.99399" xlink:href="#use2707" />
<use transform="translate(-18.434316,147.4745)" id="use2863" x="0" y="0" width="414.772" height="500.99399" xlink:href="#use2709" />
<use transform="translate(-18.434316,147.4745)" id="use2865" x="0" y="0" width="414.772" height="500.99399" xlink:href="#use2711" />
<use transform="translate(-18.434316,147.4745)" id="use2867" x="0" y="0" width="414.772" height="500.99399" xlink:href="#use2713" />
<use transform="translate(-18.434316,147.4745)" id="use2869" x="0" y="0" width="414.772" height="500.99399" xlink:href="#use2715" />
<use transform="translate(-110.60587,18.434302)" id="use2873" x="0" y="0" width="414.772" height="500.99399" xlink:href="#use2869" />
<use transform="translate(18.434312,18.434312)" id="use2875" x="0" y="0" width="414.772" height="500.99399" xlink:href="#use2851" />
<use transform="translate(36.868625,18.434302)" id="use2877" x="0" y="0" width="414.772" height="500.99399" xlink:href="#use2861" />
<use transform="translate(36.868625,18.434302)" id="use2879" x="0" y="0" width="414.772" height="500.99399" xlink:href="#use2863" />
<use transform="translate(36.868625,18.434302)" id="use2881" x="0" y="0" width="414.772" height="500.99399" xlink:href="#use2865" />
<use transform="translate(36.868625,18.434302)" id="use2883" x="0" y="0" width="414.772" height="500.99399" xlink:href="#use2867" />
<use transform="translate(36.868625,18.434302)" id="use2885" x="0" y="0" width="414.772" height="500.99399" xlink:href="#use2869" />
<g id="g3029">
<text x="231.75656" y="250.49699" id="text2889" xml:space="preserve" style="font-size:18px;font-family:DejaVu Sans">1</text>
<text x="231.284" y="268.9313" id="text2893" xml:space="preserve" style="font-size:18px;font-family:DejaVu Sans">2</text>
<text x="231.09947" y="287.14056" id="text2897" xml:space="preserve" style="font-size:18px;font-family:DejaVu Sans">3</text>
<text x="231.39651" y="305.79993" id="text2901" xml:space="preserve" style="font-size:18px;font-family:DejaVu Sans">4</text>
<text x="231.05447" y="324.23422" id="text2905" xml:space="preserve" style="font-size:18px;font-family:DejaVu Sans">5</text>
<text x="231.14449" y="342.66855" id="text2909" xml:space="preserve" style="font-size:18px;font-family:DejaVu Sans">6</text>
<text x="231.04997" y="360.87781" id="text2913" xml:space="preserve" style="font-size:18px;font-family:DejaVu Sans">7</text>
<text x="231.09947" y="379.53714" id="text2917" xml:space="preserve" style="font-size:18px;font-family:DejaVu Sans">8</text>
<text x="231.09048" y="397.97147" id="text2921" xml:space="preserve" style="font-size:18px;font-family:DejaVu Sans">9</text>
<text x="231.12648" y="416.40576" id="text2925" xml:space="preserve" style="font-size:18px;font-family:DejaVu Sans">0</text>
</g>
</g>
</g>
</svg>
