<?xml version="1.0" encoding="utf-8"?>
<!-- Generator: Adobe Illustrator 14.0.0, SVG Export Plug-In . SVG Version: 6.00 Build 43363)  -->
<!DOCTYPE svg PUBLIC "-//W3C//DTD SVG 1.0//EN" "http://www.w3.org/TR/2001/REC-SVG-20010904/DTD/svg10.dtd">
<svg version="1.0" id="Layer_1" xmlns="http://www.w3.org/2000/svg" xmlns:xlink="http://www.w3.org/1999/xlink" x="0px" y="0px"
	 width="100.001px" height="92.252px" viewBox="0 0 100.001 92.252" enable-background="new 0 0 100.001 92.252"
	 xml:space="preserve">
<g>
	<path d="M74.312,15.335c4.247,0,7.674-3.438,7.674-7.662C81.985,3.438,78.559,0,74.312,0c-4.223,0-7.662,3.438-7.662,7.673
		C66.649,11.896,70.089,15.335,74.312,15.335z"/>
	<path d="M74.312,7.673"/>
</g>
<path d="M99.987,71.753c-0.797-1.593-2.703-1.014-2.703-1.014c-3.379,3.282-9.146,2.98-9.146,2.98h-3.148l7.517-34.694l1.81,0.296
	l0.797-4.983l-3.281-0.893L63.862,13.839c0,0-2.678-2.075-5.768,0.313l-21.09,12.042l-9.556,13.912l0.868,0.543L9.17,72.549
	l-2.497-1.508l-1.158,1.858l2.521,1.532l-1.581,2.63l2.136,1.291l1.58-2.63l2.559,1.545l1.158-1.858l-2.582-1.569l19.136-31.864
	l0.7,0.435l11.342-12.15l9.652-4.476c0,0-6.564,9.845-9.955,23.371L35.665,73.72h-4.223l-1.592,3.704h4.838l-1.473,5.55H1.593
	L0,86.666h62.173c8.664-0.289,7.964-5.683,7.964-5.683c-0.796-1.581-2.679-0.989-2.679-0.989c-3.391,3.293-9.158,2.979-9.158,2.979
	H38.96l2.389-5.55h40.311l-2.1,9.713l-2.908-0.651l-0.506,2.147l2.943,0.663l-0.53,2.438l2.413,0.519l0.519-2.413l2.884,0.64
	l0.507-2.147l-2.92-0.651l2.22-10.256h7.843C100.687,77.11,99.987,71.753,99.987,71.753z M42.953,73.72l9.978-23.069l12.428,5.08
	l1.146,17.989H42.953z M82.456,73.72H71.898l2.026-21.175L58.192,41.203c0,0-0.482-0.699,0.312-1.098l12.428-11.33l19.197,9.496
	L82.456,73.72z"/>
</svg>
