<?xml version="1.0" encoding="utf-8"?>
<!-- Generator: Adobe Illustrator 15.1.0, SVG Export Plug-In . SVG Version: 6.00 Build 0)  -->
<!DOCTYPE svg PUBLIC "-//W3C//DTD SVG 1.1//EN" "http://www.w3.org/Graphics/SVG/1.1/DTD/svg11.dtd">
<svg version="1.1" id="Layer_1" xmlns="http://www.w3.org/2000/svg" xmlns:xlink="http://www.w3.org/1999/xlink" x="0px" y="0px"
	 width="100px" height="58.84px" viewBox="0 0 100 58.84" enable-background="new 0 0 100 58.84" xml:space="preserve">
<path fill="#FFC300" d="M82.369,23.536c-2.241,0-4.523,0.448-6.616,1.27c-0.032,0.037-0.032,0.037-0.032,0.037
	c-2.02-3.771-4.035-7.546-6.053-11.317c0.561-1.384,1.121-2.73,1.645-4.075c2.58,0,4.672-2.128,4.672-4.705c0-0.038,0-0.038,0-0.038
	c-5.492,0-10.984,0-16.476,0c-0.603,0-1.157,0.562-1.157,1.199c0,0.521,0.332,0.97,0.856,1.12c2.427,0.634,4.86,1.27,7.284,1.864
	c-0.674,1.568-1.311,3.102-1.939,4.635c-10.722,0-21.446,0-32.132,0c0,0,0.6-1.98,0.711-2.395c0.186-0.709,0.299-0.969,0.299-1.718
	c0-1.679-1.044-2.725-2.5-3.547c-0.038-0.036-0.076-0.075-0.076-0.075c-0.154-0.108-0.264-0.302-0.264-0.485
	c0-0.299,0.302-0.599,0.6-0.599c0.41,0,0.787,0,1.156,0c1.984,0,3.961,0,5.904,0c0-1.566,0-3.136,0-4.707c-2.169,0-4.335,0-6.461,0
	c-0.599,0-1.199,0-1.796,0c-2.575,0.04-4.668,2.169-4.668,4.745c0,1.906,1.158,3.622,2.916,4.37c0.035,0,0.072,0,0.072,0
	c0.223,0.113,0.337,0.298,0.337,0.562c0,0.035,0,0.073,0,0.111c0,0.037,0,0.037,0,0.037c-1.495,5.006-2.986,10.011-4.484,14.979
	c-0.035-0.037-0.072-0.072-0.11-0.072c-2.576-1.012-3.622-1.197-6.39-1.197C7.917,23.536,0,31.454,0,41.206
	C0,50.92,7.917,58.84,17.665,58.84c9.715,0,17.637-7.92,17.637-17.634c0-5.565-2.466-10.574-6.839-13.973
	c-0.037-0.075-0.074-0.112-0.074-0.15c0.222-0.632,0.411-1.268,0.599-1.867c6.722,4.632,13.445,9.229,20.131,13.824
	c0,0.035,0,0.074,0,0.074c-0.188,0.706-0.296,1.379-0.296,2.092c0,3.884,3.173,7.062,7.06,7.062c1.08,0,1.305-0.076,2.316-0.412
	c0.484,0.932,0.966,1.867,1.459,2.762c-0.784,0-1.54,0-2.279,0c0,0.785,0,1.57,0,2.355c0.82,0,1.637,0,2.459,0
	c0.375,0.373,0.827,0.561,1.348,0.561c0.485,0,0.969-0.225,1.309-0.596c0.674,0,1.311,0,1.947,0c0-0.791,0-1.576,0-2.32
	c-0.979,0-1.91,0-2.846,0c-0.599-1.194-1.195-2.389-1.758-3.586c1.463-0.967,2.43-2.352,2.883-4.071c0.038,0,0.038,0,0.038,0
	c0.704,0,1.376,0,2.05,0c0.896,9.039,8.479,15.88,17.559,15.88c9.709,0,17.631-7.92,17.631-17.634
	C100,31.454,92.078,23.536,82.369,23.536z M29.977,41.206c0,6.798-5.527,12.327-12.328,12.327c-6.832,0-12.364-5.529-12.364-12.327
	c0-6.839,5.532-12.369,12.364-12.369c1.755,0,3.439,0.375,4.972,1.049c0.034,0.039,0.075,0.039,0.075,0.039
	c-0.487,1.566-0.972,3.14-1.458,4.707c-0.673,2.017-2.353,3.55-4.371,4.933c-0.113,0.074-0.184,0.146-0.26,0.184
	c-0.447,0.337-0.75,0.859-0.75,1.459c0,0.934,0.826,1.754,1.792,1.754c0.079,0,0.26,0,0.338-0.031
	c3.364-0.938,6.76-3.705,7.805-6.994c0.339-1.039,0.638-2.086,0.938-3.097c0.034,0.036,0.034,0.036,0.034,0.036
	C28.784,35.077,29.977,37.994,29.977,41.206z M74.506,31.646c0.039-0.039,0.039-0.078,0.039-0.078
	c1.423,2.652,2.799,5.266,4.184,7.879c-2.877,0-5.75,0-8.592,0c0-0.033,0-0.074,0-0.074C70.583,36.236,72.045,33.661,74.506,31.646z
	 M30.204,21.036c0.335-1.122,0.672-2.245,0.97-3.365c10.606,0,21.184,0,31.75,0c-2.234,5.492-4.479,10.982-6.682,16.474
	c-0.042,0-0.079,0-0.079,0c-0.11,0-0.222,0-0.296,0c-0.713,0-1.498,0.113-2.17,0.342c-0.074,0.033-0.11,0.033-0.151,0.033
	c-0.479-0.934-0.929-1.834-1.379-2.729c0.747,0,1.497,0,2.203,0c0-0.783,0-1.566,0-2.356c-0.824,0-1.64,0-2.466,0
	c-0.031-0.037-0.031-0.037-0.031-0.037c-0.342-0.367-0.827-0.561-1.309-0.561c-0.492,0-0.936,0.193-1.273,0.561
	c-0.035,0.037-0.035,0.037-0.035,0.037c-0.673,0-1.312,0-1.943,0c0,0.79,0,1.573,0,2.356c0.971,0,1.943,0,2.878,0
	c0.596,1.197,1.193,2.393,1.756,3.549c-0.188,0.111-0.336,0.221-0.489,0.332C44.364,30.779,37.264,25.889,30.204,21.036z
	 M55.868,45.916c-2.581,0-4.708-2.137-4.708-4.71c0-2.615,2.126-4.708,4.708-4.708c2.579,0,4.702,2.093,4.702,4.708
	C60.57,43.779,58.447,45.916,55.868,45.916z M64.793,39.373c0,0,0,0,0,0.041c-0.673,0-1.383,0-2.087,0
	c-0.374-1.389-1.011-2.434-2.058-3.441c0,0-0.039-0.037-0.08-0.068c2.32-5.791,4.67-11.619,7.027-17.447
	c1.456,2.799,2.95,5.601,4.449,8.405c0,0-0.043,0-0.083,0.036C67.822,29.925,65.32,34.294,64.793,39.373z M82.352,53.533
	c-6.123,0-11.318-4.445-12.215-10.497c0-0.038,0-0.076,0-0.076c4.07,0,8.146,0,12.215,0c0.938,0,1.756-0.819,1.756-1.754
	c0-0.263-0.039-0.522-0.11-0.746c-1.945-3.661-3.888-7.285-5.794-10.91c1.273-0.448,2.765-0.713,4.148-0.713
	c6.799,0,12.363,5.53,12.363,12.369C94.715,48.004,89.15,53.533,82.352,53.533z"/>
</svg>
