<?xml version="1.0" encoding="utf-8"?>
<!-- Generator: Adobe Illustrator 15.1.0, SVG Export Plug-In . SVG Version: 6.00 Build 0)  -->
<!DOCTYPE svg PUBLIC "-//W3C//DTD SVG 1.1//EN" "http://www.w3.org/Graphics/SVG/1.1/DTD/svg11.dtd">
<svg version="1.1" id="Layer_1" xmlns="http://www.w3.org/2000/svg" xmlns:xlink="http://www.w3.org/1999/xlink" x="0px" y="0px"
	 width="100px" height="95.76px" viewBox="0 0 100 95.76" enable-background="new 0 0 100 95.76" xml:space="preserve">
<path d="M-0.068,17.242l4.131,22.594l94.305-17.242L94.236,0L-0.068,17.242z M48.314,14.487l10.5-1.92l-8.83,12.781l-10.499,1.92
	L48.314,14.487z M28.372,29.301L17.873,31.22l8.83-12.781l10.499-1.92L28.372,29.301z M69.927,10.535l10.499-1.919l-8.83,12.781
	l-10.499,1.919L69.927,10.535z M15.591,20.47l-7.1,10.276l-1.589-8.688L15.591,20.47z M82.708,19.366l7.1-10.277l1.589,8.688
	L82.708,19.366z"/>
<path d="M4.062,39.836V95.76h95.869V39.836H4.062z M91.942,70.794H12.124V47.825h79.818V70.794z"/>
</svg>
